<svg width="71" height="21" viewBox="0 0 71 21" fill="none" xmlns="http://www.w3.org/2000/svg">
<path d="M24.1272 20.9081L22.7895 18.5832H22.7855L21.4478 16.2583L20.6741 14.9166C20.3236 14.3082 19.6749 13.9375 18.9738 13.9375H17.4266V13.9415L12.0676 13.9375L12.946 15.4606C13.2281 15.9521 13.7559 16.2583 14.324 16.2583L18.7683 16.2624L20.106 18.5873H20.1101V18.5913H12.9178C12.3859 18.5913 11.8944 18.8733 11.6285 19.3367L10.7178 20.9122V20.9162L24.1272 20.9081Z" fill="#47D990"/>
<path d="M13.4054 11.6204L12.0637 9.29551L10.7259 6.97063H10.7219L12.0637 4.64976L12.0596 4.64574L13.4014 6.97063L14.7391 9.29551H14.7431L15.6537 10.871C15.9197 11.3303 16.4072 11.6123 16.9391 11.6164L18.7643 11.6204L17.4266 9.29551H17.4226L16.0849 6.97063L14.7431 4.64574L13.4054 2.32488L12.0637 0L10.7219 2.32085L10.7259 2.32488L9.38419 4.64574L8.61057 5.98748C8.26002 6.5959 8.26002 7.34132 8.61057 7.94973L9.38419 9.29149L9.38821 9.28745V9.29149H9.39224L10.2706 10.8145C10.5527 11.3061 11.0805 11.6083 11.6446 11.6123L13.4054 11.6204Z" fill="#47D990"/>
<path d="M9.38013 13.9371L8.03839 16.262L6.70067 18.5869H6.69664L6.69262 18.5909L4.02121 18.5869L5.35892 16.262L6.70067 13.9371L7.61129 12.3617C7.87722 11.9024 7.87722 11.3383 7.61129 10.8749L6.70067 9.29541L5.35892 11.6163V11.6203L4.02121 13.9412V13.9452L2.67946 16.266L1.34174 18.5909H1.33772L0 20.9118V20.9158L2.68349 20.9198L2.68753 20.9158L5.37101 20.9198H6.91826C7.61935 20.9198 8.26806 20.5451 8.61861 19.9367L9.39222 18.595H9.38819V18.5909L10.2706 17.0598C10.5526 16.5682 10.5526 15.9639 10.2706 15.4723L9.38013 13.9371Z" fill="#47D990"/>
<path d="M28.5183 20.9199C27.2986 20.9199 26.2496 20.5657 25.3958 19.8321C24.542 19.0985 24.1273 18.112 24.1273 16.8978V16.8472C24.1273 15.2535 24.8835 14.0899 26.0544 13.5081C27.2498 12.9263 28.4695 12.6986 29.9332 12.6986H31.2261C31.9092 12.6986 32.2507 12.3698 32.2507 11.7121C32.2507 10.7761 31.5189 10.0425 30.1527 10.0425C28.8598 10.0425 27.9084 10.6496 27.2498 11.8639L24.3468 10.0678C25.469 7.91767 27.4693 6.85524 30.3235 6.85524C33.7632 6.85524 35.9831 8.75244 35.9831 12.2939V20.6669H32.4702V18.9974L32.4215 18.9721C31.5432 20.2622 30.2503 20.9199 28.5183 20.9199ZM29.6161 18.0361C31.2505 18.0361 32.2263 16.9231 32.2263 15.4306V15.1271H29.9332C28.8354 15.1271 27.9572 15.6583 27.9572 16.6701C27.9572 17.5808 28.6403 18.0361 29.6161 18.0361Z" fill="white"/>
<path d="M46.8808 7.1082V11.0038C46.5881 10.9532 46.2954 10.9279 45.9782 10.9279C43.5144 10.9279 42.441 12.5216 42.441 14.95V20.6669H38.6354V7.15879H42.4166V9.23307H42.441C43.0021 7.99356 44.3926 7.00701 46.1246 7.00701C46.4417 7.00701 46.6857 7.03231 46.8808 7.1082Z" fill="white"/>
<path d="M51.6399 20.9199C50.4202 20.9199 49.3712 20.5657 48.5174 19.8321C47.6636 19.0985 47.2489 18.112 47.2489 16.8978V16.8472C47.2489 15.2535 48.0051 14.0899 49.176 13.5081C50.3714 12.9263 51.5911 12.6986 53.0548 12.6986H54.3477C55.0308 12.6986 55.3723 12.3698 55.3723 11.7121C55.3723 10.7761 54.6404 10.0425 53.2743 10.0425C51.9814 10.0425 51.03 10.6496 50.3714 11.8639L47.4684 10.0678C48.5906 7.91767 50.5909 6.85524 53.4451 6.85524C56.8848 6.85524 59.1047 8.75244 59.1047 12.2939V20.6669H55.5918V18.9974L55.543 18.9721C54.6648 20.2622 53.3719 20.9199 51.6399 20.9199ZM52.7377 18.0361C54.3721 18.0361 55.3479 16.9231 55.3479 15.4306V15.1271H53.0548C51.957 15.1271 51.0788 15.6583 51.0788 16.6701C51.0788 17.5808 51.7619 18.0361 52.7377 18.0361Z" fill="white"/>
<path d="M70.1273 0.278256V3.51615C69.8101 3.41497 69.4198 3.36438 68.9563 3.36438C67.4926 3.36438 66.6388 4.19915 66.6388 5.74221V7.15879H70.0541V10.5232H66.6632V20.6669H62.8576V10.5232H60.5157V7.15879H62.8576V5.8181C62.8576 2.30194 64.6628 0 68.3464 0C68.9807 0 69.5662 0.101185 70.1273 0.278256Z" fill="white"/>
</svg>
