<svg width="26" height="26" viewBox="0 0 26 26" fill="none" xmlns="http://www.w3.org/2000/svg">
<path d="M16.25 17.2788L16.1033 18.0144C16.4345 18.0804 16.769 17.9169 16.9204 17.615L16.25 17.2788ZM8.66667 9.71808L8.33206 9.04686C8.02893 9.19797 7.8647 9.5335 7.93132 9.86559L8.66667 9.71808ZM9.05019 9.52689L9.3848 10.1981H9.3848L9.05019 9.52689ZM10.0929 6.79245L10.789 6.51319V6.51319L10.0929 6.79245ZM9.21146 4.59536L8.51539 4.87462V4.87462L9.21146 4.59536ZM21.388 16.7357L21.1102 17.4323L21.388 16.7357ZM19.1844 15.8568L19.4622 15.1602H19.4622L19.1844 15.8568ZM16.4418 16.8965L17.1122 17.2327L17.1122 17.2327L16.4418 16.8965ZM17.6667 11.8783C17.6667 12.2925 18.0025 12.6283 18.4167 12.6283C18.8309 12.6283 19.1667 12.2925 19.1667 11.8783H17.6667ZM18.0868 10.2249L18.7794 9.93719L18.0868 10.2249ZM15.7416 7.88673L16.0279 7.19352L15.7416 7.88673ZM14.0833 6.80786C13.6691 6.80786 13.3333 7.14365 13.3333 7.55786C13.3333 7.97207 13.6691 8.30786 14.0833 8.30786V6.80786ZM22 11.8783C22 12.2925 22.3358 12.6283 22.75 12.6283C23.1642 12.6283 23.5 12.2925 23.5 11.8783H22ZM22.0903 8.57158L22.7829 8.28383L22.0903 8.57158ZM17.3999 3.89517L17.6862 3.20196V3.20196L17.3999 3.89517ZM14.0833 2.48743C13.6691 2.48743 13.3333 2.82321 13.3333 3.23743C13.3333 3.65164 13.6691 3.98743 14.0833 3.98743V2.48743ZM22 18.7414V20.5192H23.5V18.7414H22ZM5.41667 3.98743H7.19976V2.48743H5.41667V3.98743ZM16.25 17.2788C16.3967 16.5433 16.3969 16.5434 16.3971 16.5434C16.3971 16.5434 16.3973 16.5434 16.3974 16.5435C16.3976 16.5435 16.3978 16.5435 16.3979 16.5436C16.3982 16.5436 16.3983 16.5436 16.3982 16.5436C16.3981 16.5436 16.3974 16.5435 16.396 16.5432C16.3932 16.5426 16.388 16.5415 16.3803 16.5398C16.3649 16.5364 16.34 16.5307 16.3062 16.5225C16.2385 16.5061 16.1357 16.4796 16.004 16.441C15.7402 16.3637 15.3624 16.2383 14.9197 16.0491C14.0308 15.6693 12.9014 15.0413 11.9045 14.0474L10.8455 15.1097C12.0153 16.276 13.3234 16.9982 14.3303 17.4285C14.8355 17.6443 15.2702 17.789 15.5819 17.8804C15.738 17.9261 15.8637 17.9587 15.9526 17.9803C15.9971 17.9911 16.0325 17.9991 16.0578 18.0047C16.0705 18.0075 16.0807 18.0097 16.0883 18.0113C16.0921 18.0121 16.0953 18.0127 16.0978 18.0132C16.0991 18.0135 16.1001 18.0137 16.1011 18.0139C16.1015 18.014 16.1019 18.0141 16.1023 18.0142C16.1025 18.0142 16.1028 18.0142 16.1029 18.0143C16.1031 18.0143 16.1033 18.0144 16.25 17.2788ZM11.9045 14.0474C10.9078 13.0537 10.2781 11.9279 9.89737 11.0421C9.70772 10.6009 9.58204 10.2244 9.50451 9.96154C9.46579 9.8303 9.43923 9.72791 9.4228 9.66056C9.41459 9.6269 9.40892 9.60205 9.40554 9.58678C9.40385 9.57914 9.40273 9.57391 9.40216 9.57118C9.40187 9.56981 9.40171 9.56906 9.40169 9.56896C9.40168 9.56891 9.4017 9.56901 9.40176 9.56928C9.40179 9.56941 9.40182 9.56959 9.40186 9.5698C9.40189 9.56991 9.40192 9.5701 9.40194 9.57015C9.40198 9.57036 9.40202 9.57057 8.66667 9.71808C7.93132 9.86559 7.93136 9.86582 7.93141 9.86606C7.93143 9.86615 7.93148 9.86641 7.93152 9.8666C7.9316 9.86698 7.93168 9.8674 7.93177 9.86786C7.93196 9.86878 7.93218 9.86987 7.93244 9.87112C7.93296 9.87363 7.93362 9.87679 7.93442 9.8806C7.93602 9.88822 7.93821 9.89841 7.94102 9.91108C7.94663 9.93642 7.95471 9.97169 7.96554 10.0161C7.9872 10.1048 8.01988 10.2303 8.0658 10.386C8.15754 10.6969 8.30269 11.1305 8.51929 11.6344C8.95103 12.6388 9.67555 13.9433 10.8455 15.1097L11.9045 14.0474ZM9.00128 10.3893L9.3848 10.1981L8.71557 8.85567L8.33206 9.04686L9.00128 10.3893ZM10.789 6.51319L9.90753 4.3161L8.51539 4.87462L9.39685 7.07171L10.789 6.51319ZM21.6658 16.039L19.4622 15.1602L18.9065 16.5535L21.1102 17.4323L21.6658 16.039ZM15.7713 16.5602L15.5796 16.9426L16.9204 17.615L17.1122 17.2327L15.7713 16.5602ZM19.4622 15.1602C18.0554 14.5991 16.4504 15.2062 15.7713 16.5602L17.1122 17.2327C17.441 16.577 18.2209 16.28 18.9065 16.5535L19.4622 15.1602ZM9.3848 10.1981C10.7412 9.5219 11.3534 7.9201 10.789 6.51319L9.39685 7.07171C9.66942 7.75109 9.37491 8.52698 8.71557 8.85567L9.3848 10.1981ZM7.19976 3.98743C7.78037 3.98743 8.30083 4.33981 8.51539 4.87462L9.90753 4.3161C9.46402 3.21062 8.39107 2.48743 7.19976 2.48743V3.98743ZM23.5 18.7414C23.5 17.55 22.7726 16.4804 21.6658 16.039L21.1102 17.4323C21.6486 17.647 22 18.1661 22 18.7414H23.5ZM20.5833 21.9294C11.4225 21.9294 4 14.5258 4 5.39764H2.5C2.5 15.3584 10.5983 23.4294 20.5833 23.4294V21.9294ZM20.5833 23.4294C22.1921 23.4294 23.5 22.1285 23.5 20.5192H22C22 21.2959 21.3678 21.9294 20.5833 21.9294V23.4294ZM4 5.39764C4 4.62091 4.63215 3.98743 5.41667 3.98743V2.48743C3.80795 2.48743 2.5 3.78827 2.5 5.39764H4ZM19.1667 11.8783C19.1667 11.2121 19.0351 10.5525 18.7794 9.93719L17.3942 10.5127C17.5741 10.9457 17.6667 11.4097 17.6667 11.8783H19.1667ZM18.7794 9.93719C18.5238 9.32186 18.1491 8.7629 17.677 8.29217L16.6179 9.35441C16.9506 9.68605 17.2143 10.0797 17.3942 10.5127L18.7794 9.93719ZM17.677 8.29217C17.2049 7.82144 16.6445 7.44816 16.0279 7.19352L15.4553 8.57995C15.8903 8.75955 16.2853 9.02275 16.6179 9.35441L17.677 8.29217ZM16.0279 7.19352C15.4113 6.93889 14.7506 6.80786 14.0833 6.80786V8.30786C14.5542 8.30786 15.0204 8.40033 15.4553 8.57995L16.0279 7.19352ZM23.5 11.8783C23.5 10.6448 23.2563 9.42335 22.7829 8.28383L21.3977 8.85932C21.7954 9.81652 22 10.8424 22 11.8783H23.5ZM22.7829 8.28383C22.3095 7.14432 21.6157 6.10908 20.7411 5.23716L19.6821 6.2994C20.4171 7.03223 21 7.90212 21.3977 8.85932L22.7829 8.28383ZM20.7411 5.23716C19.8666 4.36524 18.8285 3.67372 17.6862 3.20196L17.1136 4.58838C18.0743 4.98512 18.947 5.56656 19.6821 6.2994L20.7411 5.23716ZM17.6862 3.20196C16.5439 2.73021 15.3196 2.48743 14.0833 2.48743V3.98743C15.1233 3.98743 16.153 4.19165 17.1136 4.58838L17.6862 3.20196Z" fill="#2662FA"/>
</svg>
