<svg width="387" height="384" viewBox="0 0 387 384" fill="none" xmlns="http://www.w3.org/2000/svg">
<path d="M386.036 366.529L364.632 329.33H364.568L343.164 292.132L330.786 270.664C325.178 260.93 314.798 254.999 303.581 254.999H278.825V255.063L193.082 254.999L207.136 279.368C211.649 287.233 220.094 292.132 229.184 292.132L300.293 292.197L321.696 329.395H321.761V329.459H206.685C198.175 329.459 190.31 333.972 186.055 341.386L171.485 366.593V366.657L386.036 366.529Z" fill="#2662FA"/>
<path d="M214.486 217.926L193.018 180.728L171.614 143.53H171.55L193.018 106.396L192.953 106.332L214.421 143.53L235.825 180.728H235.889L250.459 205.935C254.714 213.285 262.515 217.797 271.025 217.862L300.229 217.926L278.825 180.728H278.761L257.357 143.53L235.889 106.332L214.486 69.1981L193.018 32L171.55 69.1336L171.614 69.1981L150.147 106.332L137.769 127.8C132.16 137.534 132.16 149.461 137.769 159.196L150.147 180.664L150.211 180.599V180.664H150.275L164.329 205.033C168.842 212.898 177.288 217.733 186.313 217.797L214.486 217.926Z" fill="#2662FA"/>
<path d="M150.082 254.994L128.614 292.192L107.211 329.39H107.146L107.082 329.455L64.3394 329.39L85.7427 292.192L107.211 254.994L121.781 229.787C126.036 222.438 126.036 213.412 121.781 205.998L107.211 180.727L85.7427 217.86V217.925L64.3394 255.058V255.123L42.8714 292.257L21.4678 329.455H21.4035L0 366.589V366.653L42.9359 366.718L43.0004 366.653L85.9361 366.718H110.692C121.91 366.718 132.289 360.722 137.898 350.987L150.276 329.519H150.211V329.455L164.33 304.957C168.842 297.092 168.842 287.422 164.33 279.557L150.082 254.994Z" fill="#2662FA"/>
</svg>
