<svg width="515" height="512" viewBox="0 0 515 512" fill="none" xmlns="http://www.w3.org/2000/svg">
<path d="M514.714 488.705L486.176 439.107H486.09L457.553 389.509L441.049 360.886C433.57 347.906 419.731 339.998 404.774 339.998H371.767V340.084L257.443 339.998L276.182 372.49C282.199 382.977 293.459 389.509 305.579 389.509L400.391 389.596L428.929 439.193H429.015V439.279H275.58C264.234 439.279 253.747 445.296 248.074 455.181L228.647 488.791V488.877L514.714 488.705Z" fill="#2662FA"/>
<path d="M285.981 290.568L257.357 240.971L228.819 191.373H228.734L257.357 141.861L257.271 141.776L285.895 191.373L314.433 240.971H314.519L333.946 274.58C339.619 284.379 350.02 290.396 361.366 290.482L400.305 290.568L371.767 240.971H371.681L343.143 191.373L314.519 141.776L285.981 92.264L257.357 42.6665L228.734 92.1779L228.819 92.264L200.195 141.776L183.692 170.399C176.213 183.379 176.213 199.281 183.692 212.261L200.195 240.885L200.281 240.799V240.885H200.367L219.106 273.377C225.123 283.864 236.384 290.31 248.418 290.396L285.981 290.568Z" fill="#2662FA"/>
<path d="M200.109 339.992L171.486 389.59L142.948 439.187H142.862L142.776 439.273L85.7859 439.187L114.324 389.59L142.948 339.992L162.374 306.383C168.047 296.584 168.047 284.549 162.374 274.664L142.948 240.969L114.324 290.48V290.567L85.7859 340.078V340.164L57.1618 389.676L28.6238 439.273H28.538L0 488.785V488.871L57.2479 488.957L57.3339 488.871L114.581 488.957H147.589C162.546 488.957 176.385 480.963 183.864 467.983L200.367 439.359H200.281V439.273L219.106 406.609C225.123 396.123 225.123 383.229 219.106 372.742L200.109 339.992Z" fill="#2662FA"/>
</svg>
