<svg width="194" height="192" viewBox="0 0 194 192" fill="none" xmlns="http://www.w3.org/2000/svg">
<path d="M193.018 183.265L182.316 164.665H182.284L171.582 146.066L165.393 135.332C162.589 130.465 157.399 127.5 151.79 127.5H139.412V127.532L96.5411 127.5L103.568 139.684C105.825 143.617 110.047 146.066 114.592 146.066L150.146 146.099L160.848 164.698H160.88V164.73H103.342C99.0876 164.73 95.1551 166.986 93.0276 170.693L85.7427 183.297V183.329L193.018 183.265Z" fill="#2662FA"/>
<path d="M107.243 108.963L96.509 90.3641L85.8072 71.765H85.775L96.509 53.1981L96.4767 53.1659L107.211 71.765L117.912 90.3641H117.945L125.23 102.968C127.357 106.642 131.257 108.899 135.512 108.931L150.114 108.963L139.413 90.3641H139.38L128.679 71.765L117.945 53.1659L107.243 34.5991L96.509 16L85.775 34.5668L85.8072 34.5991L75.0733 53.1659L68.8843 63.8999C66.0799 68.7672 66.0799 74.7305 68.8843 79.5979L75.0733 90.3319L75.1054 90.2996V90.3319H75.1377L82.1647 102.516C84.4211 106.449 88.6438 108.866 93.1566 108.899L107.243 108.963Z" fill="#2662FA"/>
<path d="M75.0411 127.497L64.3071 146.096L53.6054 164.695H53.5731L53.5409 164.727L32.1697 164.695L42.8714 146.096L53.6054 127.497L60.8903 114.894C63.0178 111.219 63.0178 106.706 60.8903 102.999L53.6054 90.3633L42.8714 108.93V108.962L32.1697 127.529V127.561L21.4357 146.128L10.7339 164.727H10.7018L0 183.294V183.327L21.4679 183.359L21.5002 183.327L42.9681 183.359H55.346C60.9548 183.359 66.1445 180.361 68.9489 175.494L75.1378 164.76H75.1055V164.727L82.1648 152.479C84.4212 148.546 84.4212 143.711 82.1648 139.778L75.0411 127.497Z" fill="#2662FA"/>
</svg>
